Coordinates
version=1
nRows=17
nColumns=40
inDegrees=yes

Units are S.I. units (second, meters, Newtons, ...)
Angles are in degrees.

endheader
time	pelvis_tilt	pelvis_list	pelvis_rotation	pelvis_tx	pelvis_ty	pelvis_tz	hip_flexion_r	hip_adduction_r	hip_rotation_r	knee_angle_r	knee_angle_r_beta	ankle_angle_r	subtalar_angle_r	mtp_angle_r	hip_flexion_l	hip_adduction_l	hip_rotation_l	knee_angle_l	knee_angle_l_beta	ankle_angle_l	subtalar_angle_l	mtp_angle_l	lumbar_extension	lumbar_bending	lumbar_rotation	arm_flex_r	arm_add_r	arm_rot_r	elbow_flex_r	pro_sup_r	wrist_flex_r	wrist_dev_r	arm_flex_l	arm_add_l	arm_rot_l	elbow_flex_l	pro_sup_l	wrist_flex_l	wrist_dev_l
     48.62000000	     -5.48197022	     -4.64739184	     -4.48395137	      1.05814090	      0.92994340	      0.42841058	     23.97449444	     -1.98207333	    -14.73388380	      8.22619972	      8.22619972	      0.97928642	     12.41958541	      8.57929064	      6.70965559	     -6.37074461	    -11.64799528	     15.60345618	     15.60345618	     14.21798304	    -10.28440540	     -4.86294646	     -9.83798312	      4.74926960	      1.32977836	      6.67882920	    -16.96199512	     -1.45260525	     31.30905231	     46.41297692	      0.00000000	      0.00000000	      6.42554035	    -16.04334424	     -4.42420959	     54.10493618	     45.64258198	      0.00000000	      0.00000000
     48.63385714	     -5.64425847	     -4.50110506	     -4.48837444	      1.05902576	      0.92901300	      0.43066700	     23.63252585	     -1.75256162	    -15.07967571	      8.35254222	      8.35254222	      0.93563447	     12.21544078	      8.55547068	      6.39404979	     -6.34210024	    -11.70715619	     15.55224176	     15.55224176	     14.44540477	    -10.32366547	     -4.93412929	     -9.47803681	      4.61712460	      1.38701388	      6.80138605	    -16.92232158	     -1.45025010	     31.38303828	     46.41047052	      0.00000000	      0.00000000	      6.34231970	    -15.91944628	     -4.38147837	     54.06225093	     45.63840404	      0.00000000	      0.00000000
     48.64771429	     -5.38689435	     -4.36190502	     -4.40072681	      1.06071997	      0.92867733	      0.43276081	     23.11775497	     -1.72426837	    -15.33874044	      9.42950365	      9.42950365	      1.01014794	     11.69145862	      7.07913042	      5.01884112	     -6.19958997	    -12.11419108	     14.42726266	     14.42726266	     14.67930873	     -9.24668099	     -5.07695440	     -9.54519055	      4.63637052	      0.97462309	      7.22781044	    -16.62184904	     -1.42074650	     32.09287180	     46.37599578	      0.00000000	      0.00000000	      5.88510984	    -15.53577890	     -4.12815836	     53.12370115	     45.61903484	      0.00000000	      0.00000000
     48.66157143	     -5.31303636	     -4.25337692	     -4.25278162	      1.06243687	      0.92764804	      0.43508632	     22.44429888	     -1.50171860	    -14.90878145	      9.77949977	      9.77949977	     -0.74729940	     10.11696217	      0.81303348	      4.37314366	     -6.27304853	    -12.54126248	     14.34810999	     14.34810999	     15.22083724	     -8.27287036	     -5.34354287	     -9.34671450	      4.64871689	      1.35311768	      6.59281809	    -16.83721193	     -1.05163250	     33.76641004	     46.24573447	      0.00000000	      0.00000000	      6.31523916	    -14.89883534	     -3.95474486	     51.53088278	     45.67553579	      0.00000000	      0.00000000
     48.67542857	     -5.19933500	     -4.10491875	     -4.08759570	      1.06428920	      0.92691158	      0.43725228	     22.03938928	     -1.51037316	    -14.60665143	     10.92152656	     10.92152656	     -0.41873282	      9.02472903	     -0.05873948	      3.54646805	     -6.18037345	    -12.55928491	     13.95951447	     13.95951447	     15.55670598	     -7.93348474	     -5.16374095	     -9.19524265	      4.63567187	      1.22120630	      6.79918727	    -16.71910832	     -1.00113363	     34.17177448	     46.22127453	      0.00000000	      0.00000000	      5.87279359	    -14.56426250	     -3.79922556	     51.25615182	     45.67119958	      0.00000000	      0.00000000
     48.68928571	     -5.00538107	     -4.10490480	     -3.87517358	      1.06625985	      0.92628290	      0.43945777	     21.52900127	     -1.38727634	    -14.19271896	     11.98782720	     11.98782720	      0.01623697	      7.88378136	     -0.83220401	      2.74399516	     -6.28299874	    -12.51827466	     13.81256097	     13.81256097	     15.95900610	     -7.65500112	     -5.01845864	     -9.13693666	      4.80972084	      1.16197388	      7.03747272	    -16.72445606	     -0.97296843	     34.54048406	     46.20274104	      0.00000000	      0.00000000	      5.51231975	    -14.18873940	     -3.72551265	     50.93394072	     45.66698689	      0.00000000	      0.00000000
     48.70314286	     -4.88179206	     -3.96644556	     -3.67654880	      1.06827296	      0.92564481	      0.44176375	     21.23301422	     -1.34393633	    -13.10139792	     13.11350642	     13.11350642	      0.35125240	      5.78003166	     -2.03571749	      2.07873843	     -6.28176832	    -12.62692419	     13.78058196	     13.78058196	     16.48855992	     -7.12045337	     -4.48274598	     -8.96452232	      4.82192895	      1.06745657	      7.10778792	    -16.67263805	     -0.85369334	     35.23107479	     46.16095478	      0.00000000	      0.00000000	      5.09777491	    -13.72731105	     -3.80438093	     50.34166460	     45.68071276	      0.00000000	      0.00000000
     48.71700000	     -4.66761996	     -4.06839834	     -3.44837183	      1.07038971	      0.92529569	      0.44422326	     20.61714812	     -0.99834642	    -12.09292240	     13.66154284	     13.66154284	      0.02436435	      3.64649488	     -4.74193759	      1.58858990	     -6.67474150	    -12.93232672	     14.40631486	     14.40631486	     17.95141736	     -5.97564051	     -2.25151679	     -8.92990820	      5.13697469	      1.31564863	      6.65262123	    -17.04562547	     -0.20004283	     36.95975185	     46.02079247	      0.00000000	      0.00000000	      5.02650799	    -12.91188797	     -4.55005127	     49.34655423	     45.80752223	      0.00000000	      0.00000000
     48.73085714	     -4.51306785	     -4.11319320	     -3.22844660	      1.07237583	      0.92506969	      0.44668098	     20.36177691	     -0.80985866	    -11.24564499	     14.69462078	     14.69462078	      0.73812396	      2.01337727	     -5.04731627	      1.11358695	     -6.92368340	    -12.78383332	     14.77131684	     14.77131684	     18.28765363	     -5.95551937	     -1.78808430	     -8.81721677	      5.36775485	      1.24320135	      6.89415022	    -17.06024848	     -0.11538769	     37.38510426	     45.99408627	      0.00000000	      0.00000000	      4.44382365	    -12.46379225	     -4.61169993	     48.93633207	     45.82013857	      0.00000000	      0.00000000
     48.74471429	     -4.22418283	     -4.22993836	     -2.99507459	      1.07453943	      0.92529368	      0.44912253	     19.77356049	     -0.62113248	    -10.99652729	     15.32267799	     15.32267799	      1.48160360	      1.56598634	     -5.36964114	      0.51754515	     -7.25068427	    -12.59152890	     15.18380652	     15.18380652	     18.43801374	     -6.09249430	     -1.72580411	     -8.85951208	      5.70638023	      1.36812940	      7.08794945	    -17.12952131	     -0.12719841	     37.52735246	     45.98966160	      0.00000000	      0.00000000	      3.88879880	    -11.95119859	     -4.53710593	     48.69777167	     45.80740787	      0.00000000	      0.00000000
     48.75857143	     -4.04502975	     -4.33312332	     -2.79351197	      1.07625431	      0.92541333	      0.45197737	     19.62311310	     -0.28405386	     -9.85731288	     16.35434632	     16.35434632	      2.25251718	     -0.69776204	     -5.32232063	      0.52486888	     -7.76214000	    -12.57648139	     16.57389556	     16.57389556	     19.61515653	     -5.72044147	      0.52734943	     -8.86538920	      5.97680271	      1.37044666	      7.09489986	    -17.32924151	      0.30212623	     39.05279662	     45.88498899	      0.00000000	      0.00000000	      3.56696355	    -11.32047979	     -5.88326170	     47.94736708	     45.97345835	      0.00000000	      0.00000000
     48.77242857	     -3.74491678	     -4.37135112	     -2.59187161	      1.07828303	      0.92607190	      0.45475459	     19.01425032	     -0.14410444	     -9.68192916	     16.80320584	     16.80320584	      3.06030012	     -0.99190009	     -5.62161217	      0.12231961	     -8.08139723	    -12.33963253	     17.31138710	     17.31138710	     19.51963321	     -5.99083975	      0.51876199	     -8.93067141	      6.16572326	      1.55619127	      7.27717710	    -17.36186732	      0.28392798	     39.15677932	     45.88266234	      0.00000000	      0.00000000	      2.91661504	    -10.88503525	     -5.80299664	     47.69218977	     45.95790544	      0.00000000	      0.00000000
     48.78628571	     -3.59237550	     -4.54029736	     -2.31542711	      1.07972652	      0.92629636	      0.45774484	     18.82442811	      0.15724808	     -9.39063972	     17.65549221	     17.65549221	      3.77751034	     -2.06993619	     -5.71634307	      0.59598892	     -8.71569370	    -11.75645374	     19.31733079	     19.31733079	     19.50929737	     -6.86209361	      0.43190236	     -8.89615314	      6.50561992	      1.37296426	      7.76704827	    -17.34065695	      0.24421710	     39.73498958	     45.86304951	      0.00000000	      0.00000000	      2.39265739	    -10.72521724	     -5.93292045	     47.35754982	     45.96809670	      0.00000000	      0.00000000
     48.80014286	     -3.30233739	     -4.61822817	     -2.05757259	      1.08140412	      0.92698239	      0.46081135	     18.25369835	      0.37299435	     -9.27332817	     18.10559648	     18.10559648	      4.52046384	     -2.55990656	     -5.81913425	      0.83251667	     -9.23189645	    -11.24910107	     21.14788017	     21.14788017	     19.29962712	     -7.56931144	      0.29348332	     -8.98983277	      6.70800859	      1.44856052	      8.09843027	    -17.33958308	      0.22462470	     40.18052947	     45.84724394	      0.00000000	      0.00000000	      1.85828955	    -10.51059335	     -6.04418955	     47.10705358	     45.97530232	      0.00000000	      0.00000000
     48.81400000	     -3.18854652	     -4.71895404	     -1.77213660	      1.08270833	      0.92735219	      0.46397807	     17.85572049	      0.61721241	     -9.32254671	     18.48257841	     18.48257841	      5.20941033	     -2.95392357	     -5.79395852	      1.66285626	     -9.84691738	    -10.53810474	     23.62853074	     23.62853074	     18.92234485	     -8.59537394	     -0.06634367	     -8.88959887	      6.88556087	      1.33748457	      8.29846454	    -17.32509006	      0.21324302	     40.89311708	     45.81874046	      0.00000000	      0.00000000	      1.20433692	    -10.29836318	     -6.25945968	     46.82354703	     45.99364096	      0.00000000	      0.00000000
     48.82785714	     -2.90087073	     -4.79063052	     -1.46384820	      1.08401489	      0.92801634	      0.46710355	     17.18666718	      0.81184212	     -9.52744553	     18.73967938	     18.73967938	      5.88094545	     -3.02955404	     -5.85792598	      2.40915656	    -10.42792124	     -9.78966507	     26.25322528	     26.25322528	     18.31319866	     -9.60891703	     -0.53568116	     -9.02643827	      7.02481486	      1.39456474	      8.56533819	    -17.34800159	      0.20547110	     41.49267800	     45.79590893	      0.00000000	      0.00000000	      0.71318976	    -10.16596015	     -6.40658220	     46.60507990	     46.00557511	      0.00000000	      0.00000000
     48.84171429	     -2.73445225	     -4.89571773	     -1.10432009	      1.08506470	      0.92832270	      0.47018922	     16.62154813	      1.02790678	     -9.90190809	     18.93934626	     18.93934626	      6.51997072	     -2.96233261	     -5.90273656	      3.64636489	    -11.06696924	     -8.83375564	     29.42539481	     29.42539481	     17.44189252	    -10.92006819	     -1.25926800	     -8.99856786	      7.19400838	      1.34923982	      8.76629228	    -17.38774393	      0.20713342	     42.27181313	     45.76509810	      0.00000000	      0.00000000	      0.19559100	    -10.07315535	     -6.57229224	     46.36555525	     46.01961003	      0.00000000	      0.00000000
